<svg width="155" height="26" viewBox="0 0 155 26" fill="none" xmlns="http://www.w3.org/2000/svg">
<path d="M41.0821 6.49121C39.7682 6.49121 38.2666 6.52922 37.1029 6.64326V8.92394C38.3042 8.84792 40.2562 8.77189 41.9455 8.77189C43.9351 8.77189 44.9862 9.7982 44.9862 11.8128V12.1929H41.3449C37.5909 12.1929 35.4512 13.7894 35.4512 16.9063C35.4512 19.9472 37.4408 21.6578 40.7067 21.6578C43.2219 21.6578 44.7985 20.5174 45.4367 18.3888V21.2776H47.5014V12.0029C47.4638 7.93564 45.5118 6.49121 41.0821 6.49121ZM44.9862 15.842C44.8736 18.6929 43.0342 19.5671 41.2323 19.5671C39.1676 19.5671 38.0039 18.5028 38.0039 16.8683C38.0039 15.2718 39.1676 14.1315 41.2323 14.1315H44.9862V15.842Z" fill="#1A1365"/>
<path d="M63.2679 8.88573C62.1417 7.02318 60.2647 6.18693 58.1625 6.18693C53.9956 6.18693 51.1426 9.56994 51.1426 13.7512V14.2453C51.1426 18.4646 54.1457 21.8096 58.2376 21.8096C60.5275 21.8096 62.7048 20.7833 63.7934 18.3126V21.3155H65.8581V2.34778H63.2679V8.88573ZM63.3805 14.4734C63.3805 17.5523 61.2407 19.4909 58.613 19.4909C55.76 19.4909 53.7328 17.3623 53.7328 13.9793C53.7328 10.6723 55.6849 8.46761 58.5754 8.46761C61.1281 8.46761 63.3805 10.1781 63.3805 13.219V14.4734Z" fill="#1A1365"/>
<path d="M76.8192 6.1488C71.9766 6.1488 69.7617 9.91193 69.7617 13.7131V14.2072C69.7617 17.8943 71.9015 21.7715 76.9693 21.7715C80.3854 21.7715 82.8255 19.9469 83.4637 16.944H81.0236C80.7233 18.3124 79.2217 19.4908 76.9693 19.4908C73.8535 19.4908 72.3895 17.3622 72.2393 14.4733H83.6889V13.2949C83.6889 9.64585 81.4741 6.1488 76.8192 6.1488ZM72.352 12.4967C72.7649 10.102 74.2289 8.4675 76.8192 8.4675C79.4094 8.4675 80.8359 9.98795 81.1738 12.4967H72.352Z" fill="#1A1365"/>
<path d="M94.5767 6.22522H94.4641C91.7237 6.22522 90.072 7.55562 89.4338 10.0644V6.68136H87.3691V21.3157H89.9594V12.5731C89.9594 10.2164 91.4985 8.65795 93.7884 8.65795C95.9657 8.65795 97.3171 10.1404 97.3171 12.4211V21.3157H99.9074V12.9532C99.9074 8.58193 98.1805 6.22522 94.5767 6.22522Z" fill="#1A1365"/>
<path d="M107.527 2.23389H105.05V6.68122H102.572V8.65781H105.05V16.3361C105.05 20.2513 107.077 21.4676 110.305 21.4676H112.52V19.1109H109.968C108.428 19.1109 107.527 18.1987 107.527 16.6402V8.65781H112.483V6.68122H107.527V2.23389Z" fill="#1A1365"/>
<path d="M118.264 11.0146V6.64326H116.199V21.2776H118.789V13.3713C118.789 10.4824 120.366 8.84792 123.294 8.84792H124.195V6.49121H123.707C120.516 6.49121 118.714 7.89763 118.264 11.0146Z" fill="#1A1365"/>
<path d="M133.768 6.1488C128.888 6.1488 126.035 9.94994 126.035 13.7131V14.2072C126.035 17.8943 128.738 21.7715 133.768 21.7715C138.799 21.7715 141.501 17.8943 141.501 14.2072V13.7131C141.501 9.94994 138.648 6.1488 133.768 6.1488ZM133.768 19.4148C130.502 19.4148 128.625 17.0201 128.625 13.9791C128.625 10.8622 130.615 8.54352 133.768 8.54352C136.922 8.54352 138.911 10.8622 138.911 13.9791C138.911 17.0201 136.997 19.4148 133.768 19.4148Z" fill="#1A1365"/>
<path d="M24.6192 0.5H2.36723C1.03297 0.5 0 1.51695 0 2.83051V23.1695C0 24.4407 1.03297 25.5 2.36723 25.5H24.6192C25.9104 25.5 26.9864 24.4831 26.9864 23.1695V2.83051C26.9864 1.51695 25.9104 0.5 24.6192 0.5ZM20.7886 13.2966C20.7025 13.7627 20.4443 14.1017 20.143 14.4407C18.1631 16.4746 16.1833 18.4661 14.2034 20.4576C14.1173 20.5424 13.9882 20.5847 13.8591 20.5847C12.3957 20.5847 10.8893 20.5847 9.42589 20.5847H9.38284C8.9094 20.5847 8.39291 20.5847 7.91947 20.5847H7.87642C7.40298 20.5847 6.92953 20.5847 6.45609 20.5847C6.37 20.5847 6.32696 20.5847 6.19784 20.5847C8.73724 18.0424 11.1905 15.5 13.6869 13C11.1905 10.4576 8.6942 7.95763 6.19784 5.41525C6.32696 5.41525 6.37 5.41525 6.45609 5.41525C7.91947 5.41525 9.38284 5.41525 10.8462 5.41525C11.3197 5.41525 11.7931 5.41525 12.2666 5.41525C12.7831 5.41525 13.2565 5.41525 13.773 5.41525C13.9882 5.41525 14.1173 5.45763 14.2464 5.62712C15.5376 6.94068 16.8719 8.29661 18.1631 9.61017C18.8948 10.3729 19.6265 11.1356 20.3582 11.9407C20.7456 12.2797 20.8747 12.7881 20.7886 13.2966Z" fill="#7775AC"/>
<path d="M24.6192 0.5H2.36723C1.03297 0.5 0 1.51695 0 2.83051V23.1695C0 24.4407 1.03297 25.5 2.36723 25.5H24.6192C25.9104 25.5 26.9864 24.4831 26.9864 23.1695V2.83051C26.9864 1.51695 25.9104 0.5 24.6192 0.5ZM20.7886 13.2966C20.7025 13.7627 20.4443 14.1017 20.143 14.4407C18.1631 16.4746 16.1833 18.4661 14.2034 20.4576C14.1173 20.5424 13.9882 20.5847 13.8591 20.5847C12.3957 20.5847 10.8893 20.5847 9.42589 20.5847H9.38284C8.9094 20.5847 8.39291 20.5847 7.91947 20.5847H7.87642C7.40298 20.5847 6.92953 20.5847 6.45609 20.5847C6.37 20.5847 6.32696 20.5847 6.19784 20.5847C8.73724 18.0424 11.1905 15.5 13.6869 13C11.1905 10.4576 8.6942 7.95763 6.19784 5.41525C6.32696 5.41525 6.37 5.41525 6.45609 5.41525C7.91947 5.41525 9.38284 5.41525 10.8462 5.41525C11.3197 5.41525 11.7931 5.41525 12.2666 5.41525C12.7831 5.41525 13.2565 5.41525 13.773 5.41525C13.9882 5.41525 14.1173 5.45763 14.2464 5.62712C15.5376 6.94068 16.8719 8.29661 18.1631 9.61017C18.8948 10.3729 19.6265 11.1356 20.3582 11.9407C20.7456 12.2797 20.8747 12.7881 20.7886 13.2966Z" fill="url(#paint0_linear_114_1639)"/>
<defs>
<linearGradient id="paint0_linear_114_1639" x1="0" y1="13" x2="26.9864" y2="13" gradientUnits="userSpaceOnUse">
<stop stop-color="#FDAA5E"/>
<stop offset="1" stop-color="#FF3164"/>
</linearGradient>
</defs>
</svg>
