<svg width="18" height="14" viewBox="0 0 18 14" fill="none" xmlns="http://www.w3.org/2000/svg">
<path d="M18 11.8462C18 12.4174 17.7082 12.9652 17.1889 13.3692C16.6696 13.7731 15.9652 14 15.2308 14H2.76923C2.03479 14 1.33042 13.7731 0.811089 13.3692C0.291757 12.9652 0 12.4174 0 11.8462V2.15385C0 1.58261 0.291757 1.03477 0.811089 0.630847C1.33042 0.226922 2.03479 0 2.76923 0H15.2308C15.9652 0 16.6696 0.226922 17.1889 0.630847C17.7082 1.03477 18 1.58261 18 2.15385V11.8462Z" fill="#D32D27"/>
<path d="M12.5385 5.95696H9.84615V3.26465H7.69231V5.95696H5V8.07688H7.69231V10.8031H9.84615V8.07688H12.5385V5.95696Z" fill="white"/>
</svg>
